<svg xmlns="http://www.w3.org/2000/svg" viewBox="0 0 48 48">
  <radialGradient id="insta-gradient" cx="19.38" cy="42.035" r="44.899" gradientUnits="userSpaceOnUse">
    <stop offset="0" stop-color="#fd5"/>
    <stop offset="0.328" stop-color="#ff543f"/>
    <stop offset="0.348" stop-color="#fc5245"/>
    <stop offset="0.504" stop-color="#e64771"/>
    <stop offset="0.643" stop-color="#d53e91"/>
    <stop offset="0.761" stop-color="#cc39a4"/>
    <stop offset="0.841" stop-color="#c837ab"/>
  </radialGradient>
  <path fill="url(#insta-gradient)" d="M34.017,41.99l-20,0.019c-4.4,0.004-8.003-3.592-8.008-7.992l-0.019-20 c-0.004-4.4,3.592-8.003,7.992-8.008l20-0.019c4.4-0.004,8.003,3.592,8.008,7.992l0.019,20 C42.014,38.383,38.417,41.986,34.017,41.99z"/>
  <path fill="#FFFFFF" d="M24,15.5c-4.7,0-8.5,3.8-8.5,8.5s3.8,8.5,8.5,8.5s8.5-3.8,8.5-8.5S28.7,15.5,24,15.5z M24,30 c-3.3,0-6-2.7-6-6s2.7-6,6-6s6,2.7,6,6S27.3,30,24,30z"/>
  <circle fill="#FFFFFF" cx="33" cy="15" r="2"/>
</svg> 